<?xml version="1.0" encoding="utf-8"?>
<!-- Generator: Adobe Illustrator 27.4.1, SVG Export Plug-In . SVG Version: 6.00 Build 0)  -->
<svg version="1.1" id="Capa_1" xmlns="http://www.w3.org/2000/svg" xmlns:xlink="http://www.w3.org/1999/xlink" x="0px" y="0px"
	 viewBox="0 0 18.6 13.1" style="enable-background:new 0 0 18.6 13.1;" xml:space="preserve">
<style type="text/css">
	.st0{clip-path:url(#SVGID_00000005229164751542422430000008081018254648344209_);}
	.st1{fill:#FFFFFF;}
	.st2{clip-path:url(#SVGID_00000072960234403629075960000016112143396689792690_);}
	.st3{fill:#3B3387;}
	.st4{fill:none;stroke:#474EBB;}
	.st5{fill:#A0A0A0;}
	.st6{fill:#8CABEF;stroke:#474EBB;}
	.st7{fill:#8CABEF;}
	.st8{fill:#090D2D;}
	.st9{fill:#B0C4F2;}
	.st10{fill-rule:evenodd;clip-rule:evenodd;fill:#B0C4F2;}
	.st11{fill:#FFFFFF;fill-opacity:0.8;}
	.st12{fill:none;stroke:#B0C4F2;stroke-width:2;}
	.st13{clip-path:url(#SVGID_00000172404447256006268680000016513341516439426482_);}
	.st14{clip-path:url(#SVGID_00000062174489677043358950000011792243172390422421_);}
	.st15{fill:#474EBB;}
	.st16{fill:#D67086;}
	.st17{fill:none;stroke:#A0A0A0;}
	.st18{fill:#353A85;}
	.st19{fill:#5D66D3;}
	.st20{fill:#F7F7F7;}
	.st21{fill:#EED5D5;}
	.st22{opacity:7.000000e-02;fill:#2E4661;enable-background:new    ;}
	.st23{opacity:3.000000e-02;fill:#272525;enable-background:new    ;}
	.st24{fill:#040D5B;}
	.st25{opacity:0.2;fill:#BBBCBF;enable-background:new    ;}
	.st26{opacity:0.5;fill:#D1E7F5;enable-background:new    ;}
	.st27{opacity:0.22;}
	.st28{opacity:0.31;fill:#FFFFFF;enable-background:new    ;}
	.st29{fill:#DDDAE8;}
	.st30{fill:#EAC5B0;}
	.st31{fill:none;stroke:#9747FF;stroke-dasharray:10,5;}
	.st32{clip-path:url(#SVGID_00000009564254202084535110000012519228229485026448_);}
	.st33{fill:#99B0F6;}
	.st34{clip-path:url(#SVGID_00000132803746647034821050000010069170856315033009_);}
	.st35{fill:#FFFFFF;stroke:#353A85;stroke-width:2;}
	.st36{fill:#353A85;stroke:#B0C4F2;}
	.st37{clip-path:url(#SVGID_00000048491756467258536890000007326891731943517317_);}
	.st38{fill:none;}
	.st39{fill:#2D2C2C;}
	.st40{fill:none;stroke:#D67086;stroke-width:4;}
	.st41{fill:#8CABEF;stroke:#FFFFFF;stroke-width:2;stroke-miterlimit:10;}
	.st42{fill:#08746B;}
	.st43{fill:none;stroke:#FFFFFF;stroke-width:2;stroke-miterlimit:10;}
	.st44{fill-rule:evenodd;clip-rule:evenodd;fill:#8CABEF;}
	.st45{fill-rule:evenodd;clip-rule:evenodd;fill:#8CABEF;stroke:#FFFFFF;stroke-width:2;stroke-miterlimit:10;}
	.st46{fill:#08746B;stroke:#FFFFFF;stroke-width:2;stroke-miterlimit:10;}
	.st47{fill-rule:evenodd;clip-rule:evenodd;fill:#08746B;stroke:#FFFFFF;stroke-width:2;stroke-miterlimit:10;}
	.st48{clip-path:url(#SVGID_00000041259920906915847530000004031022553220734384_);}
	.st49{clip-path:url(#SVGID_00000000223633960737905540000012713113161605355679_);}
	.st50{clip-path:url(#SVGID_00000109712989711245794510000004099119778581063059_);}
</style>
<path class="st15" d="M15.9,2.2c-0.2-0.3-0.6-0.5-0.9-0.5c-0.4,0-0.7,0.2-0.9,0.5L9.3,7.7L4.6,2.2C4.4,1.9,4,1.7,3.7,1.7
	C3.3,1.7,3,1.9,2.8,2.2C2.7,2.3,2.6,2.5,2.5,2.7S2.4,3.1,2.4,3.3s0,0.4,0.1,0.6c0.1,0.2,0.2,0.4,0.3,0.5L8.4,11
	c0.1,0.2,0.3,0.3,0.4,0.4c0.2,0.1,0.3,0.1,0.5,0.1s0.3,0,0.5-0.1s0.3-0.2,0.4-0.4l5.7-6.6c0.1-0.2,0.2-0.3,0.3-0.5
	c0.1-0.2,0.1-0.4,0.1-0.6s0-0.4-0.1-0.6C16.1,2.5,16,2.3,15.9,2.2z"/>
</svg>
