<?xml version="1.0" encoding="utf-8"?>
<!-- Generator: Adobe Illustrator 27.4.1, SVG Export Plug-In . SVG Version: 6.00 Build 0)  -->
<svg version="1.1" id="Capa_1" xmlns="http://www.w3.org/2000/svg" xmlns:xlink="http://www.w3.org/1999/xlink" x="0px" y="0px"
	 viewBox="0 0 18.6 13.1" style="enable-background:new 0 0 18.6 13.1;" xml:space="preserve">
<style type="text/css">
	.st0{clip-path:url(#SVGID_00000044166167295775987110000016872361487329820572_);}
	.st1{fill:#FFFFFF;}
	.st2{clip-path:url(#SVGID_00000067217787230979444460000001412548887350724760_);}
	.st3{fill:#3B3387;}
	.st4{fill:none;stroke:#474EBB;}
	.st5{fill:#A0A0A0;}
	.st6{fill:#8CABEF;stroke:#474EBB;}
	.st7{fill:#8CABEF;}
	.st8{fill:#090D2D;}
	.st9{fill:#B0C4F2;}
	.st10{fill-rule:evenodd;clip-rule:evenodd;fill:#B0C4F2;}
	.st11{fill:#FFFFFF;fill-opacity:0.8;}
	.st12{fill:none;stroke:#B0C4F2;stroke-width:2;}
	.st13{clip-path:url(#SVGID_00000058579013985158695150000013856351076039526791_);}
	.st14{clip-path:url(#SVGID_00000167384496969231580550000014931245355083958685_);}
	.st15{fill:#474EBB;}
	.st16{fill:#D67086;}
	.st17{fill:none;stroke:#A0A0A0;}
	.st18{fill:#353A85;}
	.st19{fill:#5D66D3;}
	.st20{fill:#F7F7F7;}
	.st21{fill:#EED5D5;}
	.st22{opacity:7.000000e-02;fill:#2E4661;enable-background:new    ;}
	.st23{opacity:3.000000e-02;fill:#272525;enable-background:new    ;}
	.st24{fill:#040D5B;}
	.st25{opacity:0.2;fill:#BBBCBF;enable-background:new    ;}
	.st26{opacity:0.5;fill:#D1E7F5;enable-background:new    ;}
	.st27{opacity:0.22;}
	.st28{opacity:0.31;fill:#FFFFFF;enable-background:new    ;}
	.st29{fill:#DDDAE8;}
	.st30{fill:#EAC5B0;}
	.st31{fill:none;stroke:#9747FF;stroke-dasharray:10,5;}
	.st32{clip-path:url(#SVGID_00000145031928350373674970000014368012685673266352_);}
	.st33{fill:#99B0F6;}
	.st34{clip-path:url(#SVGID_00000106855921239592146980000013579869104177389746_);}
	.st35{fill:#FFFFFF;stroke:#353A85;stroke-width:2;}
	.st36{fill:#353A85;stroke:#B0C4F2;}
	.st37{clip-path:url(#SVGID_00000099660062952995168810000004699798544318041741_);}
	.st38{fill:none;}
	.st39{fill:#2D2C2C;}
	.st40{fill:none;stroke:#D67086;stroke-width:4;}
	.st41{fill:#8CABEF;stroke:#FFFFFF;stroke-width:2;stroke-miterlimit:10;}
	.st42{fill:#08746B;}
	.st43{fill:none;stroke:#FFFFFF;stroke-width:2;stroke-miterlimit:10;}
	.st44{fill-rule:evenodd;clip-rule:evenodd;fill:#8CABEF;}
	.st45{fill-rule:evenodd;clip-rule:evenodd;fill:#8CABEF;stroke:#FFFFFF;stroke-width:2;stroke-miterlimit:10;}
	.st46{fill:#08746B;stroke:#FFFFFF;stroke-width:2;stroke-miterlimit:10;}
	.st47{fill-rule:evenodd;clip-rule:evenodd;fill:#08746B;stroke:#FFFFFF;stroke-width:2;stroke-miterlimit:10;}
	.st48{clip-path:url(#SVGID_00000010272229827392578690000000745876843177832362_);}
	.st49{clip-path:url(#SVGID_00000001622331068898316830000009702492693268004019_);}
	.st50{clip-path:url(#SVGID_00000123408806916361984930000015631359289623407531_);}
</style>
<path class="st15" d="M2.8,11c0.2,0.3,0.6,0.5,0.9,0.5c0.4,0,0.7-0.2,0.9-0.5l4.8-5.5l4.7,5.5c0.2,0.3,0.6,0.5,0.9,0.5
	c0.4,0,0.7-0.2,0.9-0.5c0.1-0.1,0.2-0.3,0.3-0.5s0.1-0.4,0.1-0.6s0-0.4-0.1-0.6S16,8.9,15.9,8.8l-5.6-6.6C10.2,2,10,1.9,9.9,1.8
	C9.7,1.7,9.6,1.7,9.4,1.7s-0.3,0-0.5,0.1S8.6,2,8.5,2.2L2.8,8.8C2.7,9,2.6,9.1,2.5,9.3S2.4,9.7,2.4,9.9s0,0.4,0.1,0.6
	C2.6,10.7,2.7,10.9,2.8,11z"/>
</svg>
