<?xml version="1.0" encoding="utf-8"?>
<!-- Generator: Adobe Illustrator 27.4.1, SVG Export Plug-In . SVG Version: 6.00 Build 0)  -->
<svg version="1.1" id="Capa_1" xmlns="http://www.w3.org/2000/svg" xmlns:xlink="http://www.w3.org/1999/xlink" x="0px" y="0px"
	 viewBox="0 0 133.8 133.8" style="enable-background:new 0 0 133.8 133.8;" xml:space="preserve">
<style type="text/css">
	.st0{clip-path:url(#SVGID_00000028322208992260782180000008767956596155628214_);}
	.st1{fill:#FFFFFF;}
	.st2{clip-path:url(#SVGID_00000101819617081537059500000002285481418481277879_);}
	.st3{fill:#3B3387;}
	.st4{fill:none;stroke:#474EBB;}
	.st5{fill:#A0A0A0;}
	.st6{fill:#8CABEF;stroke:#474EBB;}
	.st7{fill:#8CABEF;}
	.st8{fill:#090D2D;}
	.st9{fill:#B0C4F2;}
	.st10{fill-rule:evenodd;clip-rule:evenodd;fill:#B0C4F2;}
	.st11{fill:#FFFFFF;fill-opacity:0.8;}
	.st12{fill:none;stroke:#B0C4F2;stroke-width:2;}
	.st13{clip-path:url(#SVGID_00000053547521523931476300000005374196624183213460_);}
	.st14{clip-path:url(#SVGID_00000072257166095252734020000014077127651880814262_);}
	.st15{fill:#474EBB;}
	.st16{fill:#D67086;}
	.st17{fill:none;stroke:#A0A0A0;}
	.st18{fill:#353A85;}
	.st19{fill:#5D66D3;}
	.st20{fill:#F7F7F7;}
	.st21{fill:#EED5D5;}
	.st22{opacity:7.000000e-02;fill:#2E4661;enable-background:new    ;}
	.st23{opacity:3.000000e-02;fill:#272525;enable-background:new    ;}
	.st24{fill:#040D5B;}
	.st25{opacity:0.2;fill:#BBBCBF;enable-background:new    ;}
	.st26{opacity:0.5;fill:#D1E7F5;enable-background:new    ;}
	.st27{opacity:0.22;}
	.st28{opacity:0.31;fill:#FFFFFF;enable-background:new    ;}
	.st29{fill:#DDDAE8;}
	.st30{fill:#EAC5B0;}
	.st31{fill:none;stroke:#9747FF;stroke-dasharray:10,5;}
	.st32{clip-path:url(#SVGID_00000118390651056258052970000014566171760083669399_);}
	.st33{fill:#99B0F6;}
	.st34{clip-path:url(#SVGID_00000071558914675980323720000010530619391892341681_);}
	.st35{fill:#FFFFFF;stroke:#353A85;stroke-width:2;}
	.st36{fill:#353A85;stroke:#B0C4F2;}
	.st37{clip-path:url(#SVGID_00000121254206435710488650000002982653799339359131_);}
	.st38{fill:none;}
	.st39{fill:#2D2C2C;}
	.st40{fill:none;stroke:#D67086;stroke-width:4;}
	.st41{fill:#8CABEF;stroke:#FFFFFF;stroke-width:2;stroke-miterlimit:10;}
	.st42{fill:#08746B;}
	.st43{fill:none;stroke:#FFFFFF;stroke-width:2;stroke-miterlimit:10;}
	.st44{fill-rule:evenodd;clip-rule:evenodd;fill:#8CABEF;}
	.st45{fill-rule:evenodd;clip-rule:evenodd;fill:#8CABEF;stroke:#FFFFFF;stroke-width:2;stroke-miterlimit:10;}
	.st46{fill:#08746B;stroke:#FFFFFF;stroke-width:2;stroke-miterlimit:10;}
	.st47{fill-rule:evenodd;clip-rule:evenodd;fill:#08746B;stroke:#FFFFFF;stroke-width:2;stroke-miterlimit:10;}
	.st48{clip-path:url(#SVGID_00000131326543411345187700000011401839166737255843_);}
	.st49{clip-path:url(#SVGID_00000178162664006726899070000013519847503843668636_);}
	.st50{clip-path:url(#SVGID_00000009572385920693223070000004501947877375032196_);}
</style>
<path class="st19" d="M66.9,131.9c35.9,0,65-29.1,65-65s-29.1-65-65-65s-65,29.1-65,65S31,131.9,66.9,131.9z"/>
<path class="st7" d="M95.9,105.7h-49V29.5h55.4v69.8C102.3,102.8,99.5,105.7,95.9,105.7z"/>
<path class="st18" d="M57.1,85.6h-3.4V89h3.4V85.6z"/>
<path class="st19" d="M57.1,89.7h-3.4v3.4h3.4V89.7z"/>
<path class="st20" d="M69.7,86.6h-9.8v1h9.8V86.6z"/>
<path class="st20" d="M69.6,91.1h-9.8v1h9.8V91.1z"/>
<path class="st18" d="M79.3,85.6h-3.4V89h3.4V85.6z"/>
<path class="st19" d="M79.3,89.7h-3.4v3.4h3.4V89.7z"/>
<path class="st20" d="M91.9,86.6h-9.8v1h9.8V86.6z"/>
<path class="st20" d="M91.7,91.1h-9.8v1h9.8V91.1z"/>
<path class="st18" d="M57.1,93.9h-3.4v3.4h3.4V93.9z"/>
<path class="st19" d="M57.1,98h-3.4v3.4h3.4V98z"/>
<path class="st20" d="M69.7,94.9h-9.8v1h9.8V94.9z"/>
<path class="st20" d="M69.6,99.5h-9.8v1h9.8V99.5z"/>
<path class="st18" d="M79.3,93.9h-3.4v3.4h3.4V93.9z"/>
<path class="st19" d="M79.3,98h-3.4v3.4h3.4V98z"/>
<path class="st20" d="M91.9,94.9h-9.8v1h9.8V94.9z"/>
<path class="st20" d="M91.7,99.5h-9.8v1h9.8V99.5z"/>
<path class="st20" d="M96.8,36H53.9v1.1h42.8V36H96.8z"/>
<path class="st16" d="M96.8,39.6H53.9v1.1h42.8v-1.1H96.8z"/>
<path class="st20" d="M96.8,43.2H53.9v1.1h42.8v-1.1H96.8z"/>
<path class="st16" d="M96.8,46.7H53.9v1.1h42.8v-1.1H96.8z"/>
<path class="st20" d="M96.8,50.3H53.9v1.1h42.8v-1.1H96.8z"/>
<path class="st16" d="M96.8,53.9H53.9V55h42.8v-1.1H96.8z"/>
<path class="st20" d="M96.8,57.4H53.9v1.1h42.8v-1.1H96.8z"/>
<path class="st16" d="M96.8,61H53.9v1.1h42.8V61H96.8z"/>
<path class="st20" d="M96.8,64.6H53.9v1.1h42.8v-1.1H96.8z"/>
<path class="st20" d="M73,67.9H53.9v15.2H73V67.9z"/>
<path class="st20" d="M96.8,68H75.9v6.6h20.8V68H96.8z"/>
<path class="st20" d="M96.5,76.4H75.7V83h20.8V76.4z"/>
<path class="st16" d="M90.1,110.3c9.7,0,17.6-7.9,17.6-17.6s-7.9-17.6-17.6-17.6c-9.7,0-17.6,7.9-17.6,17.6
	C72.5,102.5,80.4,110.3,90.1,110.3z"/>
<path class="st1" d="M90.2,108.7c8.7,0,15.8-7.1,15.8-15.8s-7.1-15.8-15.8-15.8s-15.8,7.1-15.8,15.8S81.4,108.7,90.2,108.7z"/>
<path class="st33" d="M83.6,83l-2-1c-0.2-0.1-0.4-0.1-0.5,0.1l-0.2,0.2l-0.3,0.3l-0.2,0.2c-0.1,0.1-0.2,0.3-0.1,0.5l0.8,2.1
	c0.1,0.3,0.4,0.6,0.7,0.6l1.3,0.3l8.6,9.6l0.5-0.4l0.3-0.3l0.5-0.4l-8.6-9.6l-0.1-1.4C84.1,83.4,83.9,83.1,83.6,83z"/>
<path class="st7" d="M83.5,83.1l-1.8-0.9c-0.2-0.1-0.4-0.1-0.5,0L81,82.4l-0.3,0.3l-0.2,0.2c-0.1,0.1-0.2,0.3-0.1,0.5l0.7,1.9
	c0.1,0.3,0.3,0.5,0.6,0.6l1.2,0.3l7.8,8.7l0.4-0.4l0.3-0.3l0.5-0.4l-7.8-8.7l-0.2-1.2C83.9,83.5,83.7,83.3,83.5,83.1z"/>
<path class="st19" d="M98.7,98l-6.2-5.5l-3.1,2.8l4.7,6.5c0.5,0.6,1.1,1.1,1.8,1.4l1.9,0.8c0.3,0.1,0.7,0.1,1-0.1l1.3-1.2
	c0.2-0.2,0.3-0.6,0.3-0.9l-0.3-1.6C99.8,99.4,99.3,98.6,98.7,98z"/>
<path class="st7" d="M92.8,92.1c0.2,0.2,0.2,0.5,0,0.7l-3.1,2.8c-0.2,0.2-0.5,0.2-0.7,0l0,0c-0.2-0.2-0.2-0.5,0-0.7l3.1-2.8
	C92.3,91.9,92.6,91.9,92.8,92.1L92.8,92.1z"/>
<path class="st7" d="M97.4,102c0.2,0.2,0.1,0.4,0,0.6l0,0c-0.2,0.2-0.5,0.2-0.6,0l-5.9-6.5c-0.2-0.2-0.2-0.5,0-0.6l0,0
	c0.2-0.2,0.5-0.2,0.6,0L97.4,102z"/>
<path class="st7" d="M99,100.6c0.2,0.2,0.1,0.4,0,0.6l0,0c-0.2,0.2-0.5,0.1-0.6,0l-5.9-6.5c-0.2-0.2-0.1-0.4,0-0.6l0,0
	c0.2-0.2,0.5-0.1,0.6,0L99,100.6z"/>
<path class="st24" d="M79.4,97.7L79,98.1c-0.7,0.7-0.9,1.6-0.5,2.1l0.5,0.6c0.4,0.5,1.4,0.3,2.1-0.3l0.4-0.4l0.1-0.1l11.8-12
	l-1.2-1.2L79.4,97.7C79.5,97.6,79.4,97.6,79.4,97.7z M80,98.2c0.5-0.5,1.2-0.7,1.5-0.3c0.3,0.3,0.1,1-0.4,1.5s-1.2,0.7-1.5,0.3
	C79.2,99.4,79.4,98.7,80,98.2z"/>
<path class="st24" d="M95.9,82.1l-2.4,2.2c-0.2,0.2-0.3,0.4-0.2,0.6l0.1,1.2c0,0.3,0.3,0.6,0.6,0.7l1.2,0.2c0.2,0,0.5,0,0.6-0.2
	l2.4-2.2c0.4-0.3,1-0.1,1,0.4c0,1.2-0.4,2.4-1.4,3.3c-1.7,1.6-4.2,1.4-5.7-0.3c-1.6-1.7-1.6-4.1,0.1-5.7c0.9-0.9,2.2-1.3,3.4-1.2
	C96.1,81.2,96.2,81.8,95.9,82.1z"/>
<path class="st24" d="M96.1,82.3l-2.4,2.2c-0.2,0.2-0.3,0.4-0.2,0.6l0.1,1.2c0,0.4,0.3,0.6,0.6,0.7l1.2,0.2c0.2,0,0.5,0,0.6-0.2
	l2.4-2.2c0.4-0.3,1-0.1,1,0.4c0,1.2-0.4,2.4-1.4,3.3c-1.7,1.6-4.2,1.4-5.7-0.3c-1.5-1.7-1.6-4.1,0.1-5.7c1-0.9,2.2-1.3,3.4-1.2
	C96.3,81.4,96.5,82,96.1,82.3z"/>
<path class="st24" d="M79.6,97.8l-0.4,0.4c-0.7,0.7-0.9,1.6-0.5,2.1l0.5,0.6c0.4,0.5,1.4,0.3,2.1-0.3l0.4-0.4l0.1-0.1l11.8-12
	l-1.2-1.2L79.6,97.8L79.6,97.8z M80.1,98.4c0.5-0.5,1.2-0.6,1.5-0.3c0.3,0.3,0.1,1-0.4,1.5s-1.2,0.7-1.5,0.3
	C79.4,99.5,79.6,98.9,80.1,98.4z"/>
<path class="st18" d="M54.3,38.1c-0.1-0.1-0.2-0.1-0.3,0l-3,1.7c-1.4-0.8-3-1.3-4.7-1.6L45,35c0-0.1-0.2-0.2-0.3-0.2l-4.2,0.3
	c-0.1,0-0.2,0.1-0.3,0.2l-0.9,3.4c-1.6,0.5-3.1,1.2-4.4,2.2l-3.2-1.3c-0.1-0.1-0.2,0-0.3,0.1l-2.8,3.1c-0.1,0.1-0.1,0.2,0,0.3l1.7,3
	c-0.8,1.4-1.3,3-1.6,4.7l-3.2,1.3c-0.1,0.1-0.2,0.2-0.2,0.3l0.3,4.2c0,0.1,0.1,0.2,0.2,0.3l3.4,0.9c0.5,1.6,1.2,3.1,2.2,4.4
	l-1.3,3.2c0,0.1,0,0.2,0.1,0.3l3.1,2.8c0.1,0.1,0.2,0.1,0.3,0l3-1.7c1.4,0.8,3,1.3,4.7,1.6l1.3,3.2c0,0.1,0.2,0.2,0.3,0.2l4.2-0.3
	c0.1,0,0.2-0.1,0.3-0.2l0.9-3.4c1.6-0.5,3.1-1.2,4.4-2.2l3.2,1.3c0.1,0,0.2,0,0.3-0.1l2.8-3.1c0.1-0.1,0.1-0.2,0-0.3l-1.7-3
	c0.8-1.4,1.3-3,1.6-4.6l3.2-1.4c0.1-0.1,0.2-0.2,0.2-0.3L62,50c0-0.1-0.1-0.2-0.2-0.3l-3.4-0.9c-0.5-1.6-1.2-3.1-2.2-4.4l1.3-3.2
	c0-0.1,0-0.2-0.1-0.3L54.3,38.1z"/>
<path class="st7" d="M47.9,54c-0.4,2.3-2.6,3.8-4.9,3.4c-1.1-0.2-2.1-0.8-2.7-1.7c-0.6-0.9-0.9-2-0.7-3.1c0.4-2.3,2.6-3.8,4.9-3.4
	c2.1,0.4,3.5,2.2,3.4,4.3C48,53.6,48,53.8,47.9,54z M41.2,55.1c0.5,0.7,1.2,1.2,2.1,1.3c1.7,0.3,3.4-0.8,3.7-2.6
	c0.3-1.8-0.8-3.4-2.6-3.8c-1.7-0.3-3.4,0.8-3.7,2.6c0,0.2,0,0.3-0.1,0.5C40.6,53.8,40.8,54.5,41.2,55.1z"/>
<path class="st7" d="M54.1,53.7c0-0.4,0-0.7,0-1.1c0-0.1,0-0.2,0-0.3c-0.1-0.5-0.2-1.1-0.3-1.6l0,0c0,0,0,0,0-0.1v-0.1
	c0-0.1-0.1-0.2-0.2-0.2h-0.1c-0.1,0-0.2,0.2-0.2,0.3c0.2,0.7,0.3,1.4,0.4,2.1c0.2,3.5-1.4,6.6-4,8.6c-1.5,1.1-3.2,1.8-5.2,1.9
	c-0.3,0-0.7,0-1,0c-2.3-0.1-4.4-0.9-6.1-2.4c-2-1.7-3.2-4.1-3.3-6.7c-0.4-5.4,3.8-10.1,9.2-10.5c0.3,0,0.7,0,1,0
	c1.4,0,2.9,0.4,4.1,1.1h0.1c0.1,0,0.2,0,0.2-0.1c0.1-0.1,0-0.3-0.1-0.3c-1.3-0.7-2.8-1.1-4.3-1.1c-0.3,0-0.7,0-1,0
	c-5.7,0.4-10,5.3-9.6,11c0.2,2.8,1.4,5.3,3.5,7.1c1.8,1.6,4.1,2.5,6.4,2.6c0.4,0,0.7,0,1.1,0c2.8-0.2,5.3-1.4,7.1-3.5
	C53.1,58.3,54,56,54.1,53.7z"/>
<path class="st24" d="M75.5,21.8c-0.1,0-0.2-0.1-0.2,0l-2,1.2c-1-0.5-2-0.9-3.1-1.1l-0.9-2.1c0-0.1-0.1-0.1-0.2-0.1l-2.8,0.2
	c-0.1,0-0.2,0.1-0.2,0.1l-0.6,2.2c-1.1,0.3-2.1,0.8-2.9,1.4l-2.2-0.9c-0.1,0-0.2,0-0.2,0l-1.8,2.1c-0.1,0.1-0.1,0.1,0,0.2l1.2,2
	c-0.5,1-0.9,2-1.1,3.1L56.4,31c-0.1,0-0.1,0.1-0.1,0.2l0.2,2.8c0,0.1,0.1,0.1,0.1,0.2l2.2,0.6c0.3,1.1,0.8,2.1,1.5,2.9l-0.9,2.2
	c0,0.1,0,0.2,0.1,0.2l2.1,1.8c0.1,0.1,0.1,0.1,0.2,0l2-1.1c1,0.5,2,0.9,3.1,1.1l0.9,2.1c0,0.1,0.1,0.1,0.2,0.1l2.8-0.2
	c0.1,0,0.1-0.1,0.2-0.1l0.6-2.2c1.1-0.3,2.1-0.8,2.9-1.4l2.2,0.9c0.1,0,0.2,0,0.2-0.1l1.8-2.1c0.1-0.1,0.1-0.2,0-0.2l-1.2-2
	c0.5-1,0.9-2,1.1-3.1l2.1-0.9c0.1,0,0.1-0.1,0.1-0.2l-0.2-2.8c0-0.1-0.1-0.2-0.1-0.2l-2.2-0.6c-0.3-1.1-0.8-2.1-1.5-2.9l0.9-2.2
	c0-0.1,0-0.2-0.1-0.2L75.5,21.8z"/>
<path class="st7" d="M71.3,32.5c-0.1,0.8-0.6,1.4-1.2,1.8c-0.6,0.4-1.4,0.6-2.1,0.5c-1.6-0.3-2.6-1.8-2.3-3.3
	c0.3-1.6,1.8-2.6,3.3-2.3c0.8,0.1,1.4,0.6,1.8,1.2c0.4,0.5,0.5,1.1,0.5,1.7C71.3,32.2,71.3,32.3,71.3,32.5z M68.1,34
	c0.6,0.1,1.1,0,1.6-0.3s0.8-0.8,0.9-1.4c0.1-0.6,0-1.1-0.3-1.6s-0.8-0.8-1.4-0.9c-1.1-0.2-2.2,0.6-2.4,1.7c0,0.1,0,0.2,0,0.3
	C66.3,32.9,67,33.8,68.1,34z"/>
<path class="st7" d="M75.5,32.3c0-0.2,0-0.5,0-0.7c0-0.5-0.1-1-0.2-1.4c0,0,0,0,0-0.1c0-0.2-0.2-0.3-0.4-0.3h-0.1
	c-0.2,0.1-0.3,0.3-0.3,0.5c0.1,0.4,0.2,0.9,0.2,1.3v0.1c0.1,1.1-0.1,2.1-0.6,3.1c-0.2,0.5-0.6,1-0.9,1.4l0,0l0,0
	c-1.1,1.3-2.7,2-4.4,2.1c-0.2,0-0.4,0-0.7,0c-1.5-0.1-2.8-0.6-4-1.6c-1.3-1.1-2-2.7-2.2-4.4c-0.1-1.7,0.4-3.3,1.6-4.6
	c1.1-1.3,2.7-2,4.4-2.2c0.2,0,0.4,0,0.6,0c0.9,0,1.8,0.3,2.7,0.7c0.1,0,0.1,0,0.2,0c0.1,0,0.3-0.1,0.3-0.2c0.1-0.2,0-0.4-0.2-0.5
	c-0.9-0.5-2-0.7-3-0.8c-0.2,0-0.5,0-0.7,0c-1.9,0.1-3.6,1-4.9,2.4c-1.3,1.4-1.9,3.3-1.7,5.2c0.1,1.9,1,3.6,2.4,4.9
	c1.2,1.1,2.8,1.7,4.4,1.8c0.2,0,0.5,0,0.7,0C72.6,38.8,75.4,35.8,75.5,32.3z"/>
</svg>
