<?xml version="1.0" encoding="utf-8"?>
<!-- Generator: Adobe Illustrator 27.4.1, SVG Export Plug-In . SVG Version: 6.00 Build 0)  -->
<svg version="1.1" id="Capa_1" xmlns="http://www.w3.org/2000/svg" xmlns:xlink="http://www.w3.org/1999/xlink" x="0px" y="0px"
	 viewBox="0 0 130 130" style="enable-background:new 0 0 130 130;" xml:space="preserve">
<style type="text/css">
	.st0{clip-path:url(#SVGID_00000161614557833611553450000009251069727872914620_);}
	.st1{fill:#FFFFFF;}
	.st2{clip-path:url(#SVGID_00000152967762844619285690000015562491892386471854_);}
	.st3{fill:#3B3387;}
	.st4{fill:none;stroke:#474EBB;}
	.st5{fill:#A0A0A0;}
	.st6{fill:#8CABEF;stroke:#474EBB;}
	.st7{fill:#8CABEF;}
	.st8{fill:#090D2D;}
	.st9{fill:#B0C4F2;}
	.st10{fill-rule:evenodd;clip-rule:evenodd;fill:#B0C4F2;}
	.st11{fill:#FFFFFF;fill-opacity:0.8;}
	.st12{fill:none;stroke:#B0C4F2;stroke-width:2;}
	.st13{clip-path:url(#SVGID_00000095297339233067904390000005054643466996439681_);}
	.st14{clip-path:url(#SVGID_00000070828502187155265300000001210973811906556553_);}
	.st15{fill:#474EBB;}
	.st16{fill:#D67086;}
	.st17{fill:none;stroke:#A0A0A0;}
	.st18{fill:#353A85;}
	.st19{fill:#5D66D3;}
	.st20{fill:#F7F7F7;}
	.st21{fill:#EED5D5;}
	.st22{opacity:7.000000e-02;fill:#2E4661;enable-background:new    ;}
	.st23{opacity:3.000000e-02;fill:#272525;enable-background:new    ;}
	.st24{fill:#040D5B;}
	.st25{opacity:0.2;fill:#BBBCBF;enable-background:new    ;}
	.st26{opacity:0.5;fill:#D1E7F5;enable-background:new    ;}
	.st27{opacity:0.22;}
	.st28{opacity:0.31;fill:#FFFFFF;enable-background:new    ;}
	.st29{fill:#DDDAE8;}
	.st30{fill:#EAC5B0;}
	.st31{fill:none;stroke:#9747FF;stroke-dasharray:10,5;}
	.st32{clip-path:url(#SVGID_00000154427592812589891360000017204905814124812945_);}
	.st33{fill:#99B0F6;}
	.st34{clip-path:url(#SVGID_00000111166963372944451650000017136514406150578354_);}
	.st35{fill:#FFFFFF;stroke:#353A85;stroke-width:2;}
	.st36{fill:#353A85;stroke:#B0C4F2;}
	.st37{clip-path:url(#SVGID_00000085960968563187715780000006739808526207173543_);}
	.st38{fill:none;}
	.st39{fill:#2D2C2C;}
	.st40{fill:none;stroke:#D67086;stroke-width:4;}
	.st41{fill:#8CABEF;stroke:#FFFFFF;stroke-width:2;stroke-miterlimit:10;}
	.st42{fill:#08746B;}
	.st43{fill:none;stroke:#FFFFFF;stroke-width:2;stroke-miterlimit:10;}
	.st44{fill-rule:evenodd;clip-rule:evenodd;fill:#8CABEF;}
	.st45{fill-rule:evenodd;clip-rule:evenodd;fill:#8CABEF;stroke:#FFFFFF;stroke-width:2;stroke-miterlimit:10;}
	.st46{fill:#08746B;stroke:#FFFFFF;stroke-width:2;stroke-miterlimit:10;}
	.st47{fill-rule:evenodd;clip-rule:evenodd;fill:#08746B;stroke:#FFFFFF;stroke-width:2;stroke-miterlimit:10;}
	.st48{clip-path:url(#SVGID_00000064324052254921132600000006889418876713436573_);}
	.st49{clip-path:url(#SVGID_00000088849822272344825720000003544364939940861320_);}
	.st50{clip-path:url(#SVGID_00000148642997193548065250000007546037444923649679_);}
</style>
<g>
	<path class="st19" d="M65,130c35.9,0,65-29.1,65-65S100.9,0,65,0S0,29.1,0,65S29.1,130,65,130z"/>
	<path class="st7" d="M88,104.6H35V28.3h58.8v71.3C93.8,102.4,91.2,104.6,88,104.6z"/>
	<path class="st15" d="M93.7,28.3H35v3.5h58.7V28.3z"/>
	<path class="st20" d="M79,70.2c0.8,0,0.8-0.9,0-0.9c-9.8,0-19.7,0-29.5,0c-0.8,0-0.8,0.9,0,0.9H79z"/>
	<path class="st20" d="M63.1,34.3c-4.7,0-9,2.1-11.8,5.4l11.8,10.2l11.8-10.2C72,36.4,67.8,34.3,63.1,34.3z"/>
	<path class="st19" d="M79.7,47.6l-15.5,2.2v15.6c8.6,0,15.6-7,15.6-15.6C79.9,49.1,79.8,48.4,79.7,47.6z"/>
	<path class="st21" d="M51.3,39.8c-5.6,6.6-4.7,16.5,1.9,22c0.6,0.5,1.2,0.9,1.8,1.3l8.3-13.3L51.3,39.8z"/>
	<path class="st16" d="M63.2,65.5c-2.9,0-5.9-0.8-8.5-2.5l8.5-13.2V65.5z"/>
	<path class="st3" d="M80.5,46.8c-0.4-3.1-1.7-5.8-3.7-8L65,49L80.5,46.8z"/>
	<path class="st18" d="M47.7,87.3H42v13.8h5.7V87.3z"/>
	<path class="st15" d="M47.7,81.9H42v6.5h5.7V81.9z"/>
	<path class="st18" d="M85.5,87.9h-5.7v13.8h5.7V87.9z"/>
	<path class="st15" d="M85.5,76.3h-5.8v12.8h5.8V76.3z"/>
	<path class="st18" d="M72.9,86.8h-5.7v14.6h5.7V86.8z"/>
	<path class="st15" d="M72.9,85.5h-5.7v9.7h5.7V85.5z"/>
	<path class="st18" d="M60.3,81.8h-5.7v19.6h5.7V81.8z"/>
	<path class="st15" d="M60.3,74.1h-5.7v15.7h5.7V74.1z"/>
	<path class="st1" d="M37.2,31.1c-0.4,0-0.8-0.3-0.8-0.8c0-0.4,0.3-0.8,0.8-0.8c0.4,0,0.8,0.3,0.8,0.8C38,30.7,37.7,31.1,37.2,31.1z
		 M37.2,29.7c-0.3,0-0.6,0.3-0.6,0.6c0,0.3,0.3,0.6,0.6,0.6c0.3,0,0.6-0.3,0.6-0.6C37.9,30,37.6,29.7,37.2,29.7z"/>
	<path class="st1" d="M39.6,31.1c-0.4,0-0.8-0.3-0.8-0.8c0-0.4,0.3-0.8,0.8-0.8c0.4,0,0.8,0.3,0.8,0.8C40.3,30.7,40,31.1,39.6,31.1z
		 M39.6,29.7c-0.3,0-0.6,0.3-0.6,0.6c0,0.3,0.3,0.6,0.6,0.6c0.3,0,0.6-0.3,0.6-0.6S39.9,29.7,39.6,29.7z"/>
	<path class="st1" d="M41.9,31.1c-0.4,0-0.8-0.3-0.8-0.8c0-0.4,0.3-0.8,0.8-0.8c0.4,0,0.8,0.3,0.8,0.8
		C42.7,30.7,42.3,31.1,41.9,31.1z M41.9,29.7c-0.3,0-0.6,0.3-0.6,0.6c0,0.3,0.3,0.6,0.6,0.6c0.3,0,0.6-0.3,0.6-0.6
		S42.2,29.7,41.9,29.7z"/>
	<path class="st22" d="M76.6,75.3H51v18.5h25.6V75.3z"/>
	<path class="st18" d="M77.6,74.2H51.8v18.6h25.8V74.2z"/>
	<path class="st16" d="M77.6,74.2H51.9v1.5h25.7V74.2z"/>
	<path class="st23" d="M77.6,78.9L77.6,78.9l-3.2-0.1v-3.1h-0.1v3.1h-3.8v-3.1h-0.1v3.1h-3.8v-3.1h-0.1v3.1h-3.8v-3.1h-0.1v3.1H59
		v-3.1l0,0v3.1h-3.8v-3.1h-0.1v3.1H52v0.1h3.2v3.5H52v0.1h3.2V86H52v0.1h3.2v3.5H52v0.1h3.2V93h0.1v-3.3h3.8V93h0.1v-3.3H63V93h0.1
		v-3.3h3.8V93H67v-3.3h3.8V93h0.1v-3.3h3.8V93h0.1v-3.3H78v-0.1h-3.2v-3.5H78V86h-3.2v-3.5H78v-0.1h-3.2v-3.5H77.6z M70.5,78.9v3.5
		h-3.8v-3.5H70.5z M62.9,82.4h3.8v3.5h-3.8V82.4z M62.8,85.9H59v-3.5h3.8V85.9z M66.7,82.4h3.8v3.5h-3.8V82.4z M66.7,78.9v3.5h-3.8
		v-3.5H66.7z M62.8,78.9v3.5H59v-3.5H62.8z M55.2,78.9H59v3.5h-3.8V78.9z M55.2,82.4H59v3.5h-3.8V82.4z M55.2,89.5V86H59v3.5H55.2z
		 M59,89.5V86h3.8v3.5H59z M62.9,89.5V86h3.8v3.5H62.9z M66.7,89.5V86h3.8v3.5H66.7z M74.4,89.5h-3.8V86h3.8V89.5z M74.4,85.9h-3.8
		v-3.5h3.8V85.9z M74.4,82.4h-3.8v-3.5h3.8V82.4z"/>
	<path class="st16" d="M74.9,78.1c-0.4,0-0.8,0.3-0.8,0.8c0,0.2,0.1,0.4,0.2,0.6c-0.9,0.8-1.8,1.6-2.7,2.4c-0.1,0.1-0.1,0.1-0.2,0.2
		c-0.1-0.1-0.3-0.2-0.5-0.2c-0.4,0-0.8,0.3-0.8,0.8c0,0.3,0.1,0.5,0.4,0.7c-0.2,0.5-0.4,1-0.6,1.4c-0.1,0.2-0.2,0.4-0.3,0.6
		c-0.1,0-0.1,0-0.2,0c-0.3,0-0.5,0.2-0.7,0.4c-0.9-0.6-1.8-1.1-2.6-1.7c-0.7-0.4-1.3-0.8-2-1.2c0-0.1,0.1-0.2,0.1-0.3
		c0-0.4-0.4-0.8-0.8-0.8s-0.8,0.4-0.8,0.8c0,0.1,0,0.1,0,0.2c-1.2,0.5-2.5,1-3.7,1.5c-0.1,0.1-0.2,0.1-0.4,0.1
		c-0.1-0.3-0.4-0.5-0.7-0.5c-0.4,0-0.8,0.3-0.8,0.8c0,0.2,0.1,0.4,0.2,0.6c-0.2,0.2-0.4,0.4-0.5,0.6c-0.9,1-1.8,2-2.6,3
		c-0.1-0.1-0.3-0.1-0.4-0.1c-0.4,0-0.8,0.4-0.8,0.8s0.4,0.8,0.8,0.8s0.8-0.3,0.8-0.8c0-0.2-0.1-0.3-0.1-0.4c0.7-0.8,1.5-1.7,2.2-2.6
		c0.3-0.4,0.6-0.7,1-1.1c0.1,0,0.2,0.1,0.3,0.1c0.4,0,0.8-0.4,0.8-0.8l0,0c0,0,0,0,0.1,0c1.4-0.6,2.7-1.1,4.1-1.7
		c0.1,0.2,0.4,0.4,0.7,0.4c0.2,0,0.4-0.1,0.6-0.2c0.6,0.4,1.2,0.7,1.8,1.1c1,0.6,1.9,1.2,2.9,1.8v0.1c0,0.4,0.4,0.8,0.8,0.8
		s0.8-0.4,0.8-0.8c0-0.3-0.1-0.5-0.3-0.7c0.3-0.7,0.6-1.4,0.9-2.1c0.1,0,0.1,0,0.2,0c0.4,0,0.8-0.4,0.8-0.8c0-0.2,0-0.3-0.1-0.4
		c0.2-0.1,0.3-0.3,0.5-0.4c0.7-0.6,1.4-1.2,2.1-1.8c0.1-0.1,0.3-0.3,0.4-0.4c0.1,0,0.2,0.1,0.3,0.1c0.4,0,0.8-0.3,0.8-0.8
		C75.7,78.4,75.3,78.1,74.9,78.1z"/>
	<g>
		<path class="st20" d="M107,63.7l-4.1,6.5L79.8,55.6l4.1-6.5L107,63.7z"/>
		<path class="st24" d="M115,73.2L115,73.2c-1.3,2.1-3.6,3-5.2,2.1L92,64.4l4.7-7.9l17.8,11.2C116,68.7,116.3,71.1,115,73.2z"/>
		<path class="st25" d="M81.4,56.7l1.1,0.8l10.1-2.6l-8.4-5.4L81.4,56.7z"/>
		<path class="st24" d="M76.7,21.5c-10.9-6.8-25.1-3.5-31.9,7.4s-3.5,25.2,7.4,31.9c10.9,6.8,25.1,3.5,31.9-7.4
			C90.9,42.6,87.6,28.3,76.7,21.5z M81.3,51.8c-5.8,9.3-18.1,12.2-27.5,6.4c-9.3-5.8-12.2-18.1-6.4-27.5c5.8-9.3,18.1-12.2,27.5-6.4
			S87.2,42.4,81.3,51.8z"/>
		<path class="st26" d="M78.5,55.3c7.8-7.8,7.8-20.4,0-28.2c-7.8-7.8-20.4-7.8-28.2,0c-7.8,7.8-7.8,20.4,0,28.2
			C58.1,63.1,70.7,63.1,78.5,55.3z"/>
		<g class="st27">
			<path class="st1" d="M50.1,40.4c-0.1-6.4,4-12.1,10.2-13.9c6.1-1.8,12.8,0.9,16,6.4c0.9,1.5,3.4,0.2,2.5-1.3
				c-3.7-6.3-11-9.6-18.2-8.1c-7.1,1.5-12.3,7.6-13.1,14.6c-0.1,0.7-0.1,1.4-0.1,2.1C47.3,42.1,50.1,42.2,50.1,40.4z"/>
		</g>
		<path class="st28" d="M79.7,39.1c1-0.1,1.7-1.1,1.6-2.1s-1.1-1.7-2.1-1.6s-1.7,1.1-1.6,2.1S78.7,39.2,79.7,39.1z"/>
		<path class="st18" d="M92.3,64.1l4.4-7.5c0.2-0.3,0.1-0.6-0.2-0.8l-0.1-0.1c-0.3-0.2-0.7-0.1-0.8,0.2l-4.4,7.5
			c-0.2,0.3-0.1,0.6,0.2,0.8l0,0C91.8,64.4,92.1,64.4,92.3,64.1z"/>
		<path class="st29" d="M83.9,41.3c0,4.8-1.8,9.4-4.9,13s-7.5,5.8-12.1,6.5c-4.8,0.7-9.7-0.5-13.7-3.2c-3.9-2.6-6.7-6.6-8-11.1
			c-1.3-4.7-0.8-9.8,1.4-14.1c2.1-4.2,5.7-7.5,10-9.3c4.5-1.9,9.6-2,14.2-0.4c4.4,1.5,8.2,4.7,10.5,8.7C83,34.4,83.9,37.9,83.9,41.3
			c0,0.7,1.1,0.7,1.1,0c0-4.8-1.7-9.4-4.7-13.2c-2.9-3.6-7.2-6.2-11.7-7.2c-4.7-1-9.7-0.3-14,1.9c-4.1,2.2-7.5,5.8-9.3,10
			c-2,4.4-2.3,9.5-1,14.2c1.3,4.5,4.1,8.4,7.9,11.2C56.1,61,61,62.3,65.7,62c4.7-0.3,9.2-2.3,12.7-5.6c4.2-3.9,6.6-9.5,6.6-15.2
			C84.9,40.6,83.9,40.6,83.9,41.3z"/>
		<path class="st30" d="M112.2,77.6c0.7-2,1.8-5.9,2.5-7.7c-1.4-4.6-4.2-12.3-4.5-12.4c-1.7-0.5-3.2-0.9-4.9-1.4
			c-0.1,0-0.6,2.5-0.7,2.5s-0.1-0.5-0.1-1.1l0,0l-0.3-3.3c0-0.3-0.2-0.5-0.5-0.6c-1-0.3-3.1-0.8-3.2-0.6c0,0.1-0.2,2.9-0.4,3.7
			l-0.4-0.2l-0.5-5.4c0,0-3.7-0.9-3.8-0.8c-0.1,0.2-0.9,4.7-0.9,4.7s-1.4,10.8-1.6,11.6c-0.2,1.1-1,2.1-0.9,3.3
			c0.1,1.2,0.7,2.4,1.2,3.6c1.3,2.8,2.6,5.5,3.9,8.3c0.3,1.9,0.6,6.2,1,8c4.9-1,9.7-1.7,15.1-3.4C113.5,86.4,111.9,78.4,112.2,77.6z
			"/>
		<path class="st20" d="M96.9,96.9l-1.1-9.8l19.4-7.2l3.4,12L97,98.3L96.9,96.9z"/>
		<path class="st24" d="M119.3,85.7c0,0-20,11.4-24.1,12.5l-1.1,26.9H128L119.3,85.7z"/>
		<path class="st24" d="M99.9,91.1c-0.2,0.6-0.8,0.9-1.4,0.8c-0.6-0.2-0.9-0.8-0.8-1.4s0.8-0.9,1.4-0.8
			C99.7,89.9,100.1,90.5,99.9,91.1z"/>
		<path class="st30" d="M91,70.3l-2.6-4.1l-3.7-3.5c0,0-0.7-2.1,1.6-2.2c2.3-0.1,3.9,1.9,5,3.5c0.5,0.7,2.7,2.7,4.4,3.9
			c2.2,1.6-0.1,8.6-0.1,8.6S91.2,70.7,91,70.3z"/>
	</g>
</g>
</svg>
