<?xml version="1.0" encoding="utf-8"?>
<!-- Generator: Adobe Illustrator 27.4.1, SVG Export Plug-In . SVG Version: 6.00 Build 0)  -->
<svg version="1.1" id="Capa_1" xmlns="http://www.w3.org/2000/svg" xmlns:xlink="http://www.w3.org/1999/xlink" x="0px" y="0px"
	 viewBox="0 0 133.8 133.8" style="enable-background:new 0 0 133.8 133.8;" xml:space="preserve">
<style type="text/css">
	.st0{clip-path:url(#SVGID_00000142884385571644296140000008556497183749055384_);}
	.st1{fill:#FFFFFF;}
	.st2{clip-path:url(#SVGID_00000065040456178605435830000016040332352741776534_);}
	.st3{fill:#3B3387;}
	.st4{fill:none;stroke:#474EBB;}
	.st5{fill:#A0A0A0;}
	.st6{fill:#8CABEF;stroke:#474EBB;}
	.st7{fill:#8CABEF;}
	.st8{fill:#090D2D;}
	.st9{fill:#B0C4F2;}
	.st10{fill-rule:evenodd;clip-rule:evenodd;fill:#B0C4F2;}
	.st11{fill:#FFFFFF;fill-opacity:0.8;}
	.st12{fill:none;stroke:#B0C4F2;stroke-width:2;}
	.st13{clip-path:url(#SVGID_00000148640333321046373690000003475235244049272460_);}
	.st14{clip-path:url(#SVGID_00000152960456526070095730000012616273018848251326_);}
	.st15{fill:#474EBB;}
	.st16{fill:#D67086;}
	.st17{fill:none;stroke:#A0A0A0;}
	.st18{fill:#353A85;}
	.st19{fill:#5D66D3;}
	.st20{fill:#F7F7F7;}
	.st21{fill:#EED5D5;}
	.st22{opacity:7.000000e-02;fill:#2E4661;enable-background:new    ;}
	.st23{opacity:3.000000e-02;fill:#272525;enable-background:new    ;}
	.st24{fill:#040D5B;}
	.st25{opacity:0.2;fill:#BBBCBF;enable-background:new    ;}
	.st26{opacity:0.5;fill:#D1E7F5;enable-background:new    ;}
	.st27{opacity:0.22;}
	.st28{opacity:0.31;fill:#FFFFFF;enable-background:new    ;}
	.st29{fill:#DDDAE8;}
	.st30{fill:#EAC5B0;}
	.st31{fill:none;stroke:#9747FF;stroke-dasharray:10,5;}
	.st32{clip-path:url(#SVGID_00000036952433530101107720000012247540364244176556_);}
	.st33{fill:#99B0F6;}
	.st34{clip-path:url(#SVGID_00000049944486099975500730000013316055804599570874_);}
	.st35{fill:#FFFFFF;stroke:#353A85;stroke-width:2;}
	.st36{fill:#353A85;stroke:#B0C4F2;}
	.st37{clip-path:url(#SVGID_00000178923217049923566960000007935223537674569904_);}
	.st38{fill:none;}
	.st39{fill:#2D2C2C;}
	.st40{fill:none;stroke:#D67086;stroke-width:4;}
	.st41{fill:#8CABEF;stroke:#FFFFFF;stroke-width:2;stroke-miterlimit:10;}
	.st42{fill:#08746B;}
	.st43{fill:none;stroke:#FFFFFF;stroke-width:2;stroke-miterlimit:10;}
	.st44{fill-rule:evenodd;clip-rule:evenodd;fill:#8CABEF;}
	.st45{fill-rule:evenodd;clip-rule:evenodd;fill:#8CABEF;stroke:#FFFFFF;stroke-width:2;stroke-miterlimit:10;}
	.st46{fill:#08746B;stroke:#FFFFFF;stroke-width:2;stroke-miterlimit:10;}
	.st47{fill-rule:evenodd;clip-rule:evenodd;fill:#08746B;stroke:#FFFFFF;stroke-width:2;stroke-miterlimit:10;}
	.st48{clip-path:url(#SVGID_00000028287393072228587890000003400378890980331674_);}
	.st49{clip-path:url(#SVGID_00000041286334899764721560000005192228470303954568_);}
	.st50{clip-path:url(#SVGID_00000057129342610331220060000012748496844987454138_);}
</style>
<g>
	<path class="st19" d="M66.9,131.9c35.9,0,65-29.1,65-65s-29.1-65-65-65s-65,29.1-65,65S31,131.9,66.9,131.9z"/>
	<path class="st7" d="M93.4,112.5H44.3V36.3h55.4v69.8C99.7,109.6,96.9,112.5,93.4,112.5z"/>
	<path class="st1" d="M95.1,42.4H50.2v28.4h44.9V42.4z"/>
	<path class="st21" d="M78.6,52.2c0.2,0.4,0.5,0.7,1.1,0.9c1.1,0.4,2.7,0.1,3.3-0.8c1.1-1.6,0.8-3.9,2-5.5c0.5-0.7,1.2-1.2,2.1-1.4
		c0.9-0.2,1.8-0.2,2.6,0.2c1.2,0.7,1.7,2.1,1.7,3.4c0,2.5-0.3,5-0.8,7.5c-0.2,1.2-0.5,2.4-1.4,3.3c-1.2,1.3-3.1,1.8-4.9,2.1
		c-4.6,0.7-9.4,0.3-14-0.2c-3.8-0.4-7.5-0.7-11.3-1.1c-1.1-0.1-4.2,0.1-4.8-0.7c-0.6-0.7-0.1-3.1,0.2-3.9c0.8-1.7,3-2.6,5.1-2.5
		c4.7,0.2,2.8-4.6,4.3-6.9c0.8-1.2,2.5-2.1,4-1.6c1.4,0.5,2,1.9,2.7,3.1c0.4,0.6,0.9,1.3,1.7,1.4c1.3,0.2,2.4-1.1,3.8-1.1
		c0.8,0,1.5,0.6,1.8,1.2C78.4,50.5,78.2,51.5,78.6,52.2z"/>
	<path class="st16" d="M92.1,69.2c0,0,0-2,0-2.2c0-3.1,0-6.1,0-9.1c0-2.9,0.2-5.8,0.2-8.7c0-1.3-0.6-2-2-1.7s-2.7,1.2-3.6,2.3
		c-0.6,0.8-1.1,1.7-2,2.1c-1.7,0.6-3-1.3-4.5-2.2c-1.6-1-3.8-0.8-5.3,0.4c-1.7,1.5-2.1,4-3.6,5.7c-1.6,1.9-4.5,2.6-6.8,1.5
		c-0.9-0.4-1.7-1.1-2.7-1.6c-3.6-1.8-8.7,0.8-9.3,4.8v8.3C52.7,68.9,92.2,69.3,92.1,69.2z"/>
	<path class="st18" d="M54.3,75.1h-3.4v3.4h3.4V75.1z"/>
	<path class="st19" d="M54.3,80.1h-3.4v3.4h3.4V80.1z"/>
	<path class="st20" d="M66.9,76.1h-9.8v1h9.8V76.1z"/>
	<path class="st20" d="M66.7,81.5h-9.8v1h9.8V81.5z"/>
	<path class="st20" d="M94.2,89.2H51.4v1.1h42.8V89.2z"/>
	<path class="st20" d="M70.4,92.4H51.3v15.2h19.1V92.4z"/>
	<path class="st20" d="M94.2,92.6H73.4v6.6h20.8V92.6z"/>
	<path class="st20" d="M94,100.9H73.2v6.6H94V100.9z"/>
	<path class="st24" d="M53.9,45.9h-35c-0.1,0-0.2,0.1-0.2,0.3v18.6c0,4.6,3.4,8.3,7.6,8.3h14.5l5.9,8.3c0.2,0.2,0.5,0.1,0.5-0.2
		l0.1-8.2h6.6c0.1,0,0.2-0.1,0.2-0.3V46.1C54.1,46,54,45.9,53.9,45.9z"/>
	<path class="st20" d="M45,50.3H23.2v0.9H45V50.3z"/>
	<path class="st20" d="M49.2,57.3h-26v0.9h26V57.3z"/>
	<path class="st20" d="M49.2,64.2h-26v0.9h26V64.2z"/>
	<path class="st24" d="M93.5,67.4h23.6c0.1,0,0.2,0.1,0.2,0.2v12.5c0,3.1-2.3,5.6-5.1,5.6h-9.8l-4,5.6c-0.1,0.2-0.3,0.1-0.3-0.1
		L98,85.7h-4.4c-0.1,0-0.2-0.1-0.2-0.2V67.6C93.3,67.5,93.4,67.4,93.5,67.4z"/>
	<path class="st20" d="M114.1,70.4H99.4V71h14.7V70.4z"/>
	<path class="st20" d="M114.1,75.1H96.6v0.6h17.5V75.1z"/>
	<path class="st20" d="M114.1,79.8H96.6v0.6h17.5V79.8z"/>
	<path class="st16" d="M102.8,39.7h-26V21.3h24.3l5.2,5.5v9.1C106.3,38,104.7,39.7,102.8,39.7z"/>
	<path class="st24" d="M106.3,26.9l-5.2,0.1v-5.7L106.3,26.9z"/>
	<path class="st20" d="M100.5,26.1H83.9v0.8h16.6V26.1z"/>
	<path class="st20" d="M100.5,29.9H81.3v0.8h19.2V29.9z"/>
	<path class="st20" d="M100.5,33.7H81.3v0.8h19.2V33.7z"/>
</g>
</svg>
