<?xml version="1.0" encoding="utf-8"?>
<!-- Generator: Adobe Illustrator 27.4.1, SVG Export Plug-In . SVG Version: 6.00 Build 0)  -->
<svg version="1.1" id="Capa_1" xmlns="http://www.w3.org/2000/svg" xmlns:xlink="http://www.w3.org/1999/xlink" x="0px" y="0px"
	 viewBox="0 0 134 134" style="enable-background:new 0 0 134 134;" xml:space="preserve">
<style type="text/css">
	.st0{fill:#5D66D3;}
	.st1{fill:#8CABEF;}
	.st2{fill:#474EBB;}
	.st3{fill:#F7F7F7;}
	.st4{fill:#EED5D5;}
	.st5{fill:#D67086;}
	.st6{fill:#3B3387;}
	.st7{fill:#353A85;}
	.st8{fill:#FFFFFF;}
	.st9{opacity:7.000000e-02;fill:#2E4661;enable-background:new    ;}
	.st10{opacity:3.000000e-02;fill:#272525;enable-background:new    ;}
	.st11{clip-path:url(#SVGID_00000155119682896614844360000010479507224226143639_);}
	.st12{fill:#040D5B;}
	.st13{opacity:0.2;fill:#BBBCBF;enable-background:new    ;}
	.st14{opacity:0.5;fill:#D1E7F5;enable-background:new    ;}
	.st15{opacity:0.22;}
	.st16{opacity:0.31;fill:#FFFFFF;enable-background:new    ;}
	.st17{fill:#DDDAE8;}
	.st18{fill:#EAC5B0;}
</style>
<g>
	<path class="st0" d="M67,132c35.9,0,65-29.1,65-65S102.9,2,67,2S2,31.1,2,67S31.1,132,67,132z"/>
	<path class="st1" d="M90,106.6H37V30.3h58.8v71.3C95.8,104.4,93.2,106.6,90,106.6z"/>
	<path class="st2" d="M95.7,30.3H37v3.5h58.7V30.3z"/>
	<path class="st3" d="M81,72.2c0.8,0,0.8-0.9,0-0.9c-9.8,0-19.7,0-29.5,0c-0.8,0-0.8,0.9,0,0.9H81z"/>
	<path class="st3" d="M65.1,36.3c-4.7,0-9,2.1-11.8,5.4l11.8,10.2l11.8-10.2C74,38.4,69.8,36.3,65.1,36.3z"/>
	<path class="st0" d="M81.7,49.6l-15.5,2.2v15.6c8.6,0,15.6-7,15.6-15.6C81.9,51.1,81.8,50.4,81.7,49.6z"/>
	<path class="st4" d="M53.3,41.8c-5.6,6.6-4.7,16.5,1.9,22c0.6,0.5,1.2,0.9,1.8,1.3l8.3-13.3L53.3,41.8z"/>
	<path class="st5" d="M65.2,67.5c-2.9,0-5.9-0.8-8.5-2.5l8.5-13.2V67.5z"/>
	<path class="st6" d="M82.5,48.8c-0.4-3.1-1.7-5.8-3.7-8L67,51L82.5,48.8z"/>
	<path class="st7" d="M49.7,89.3H44v13.8h5.7V89.3z"/>
	<path class="st2" d="M49.7,83.9H44v6.5h5.7V83.9z"/>
	<path class="st7" d="M87.5,89.9h-5.7v13.8h5.7V89.9z"/>
	<path class="st2" d="M87.5,78.3h-5.8v12.8h5.8V78.3z"/>
	<path class="st7" d="M74.9,88.8h-5.7v14.6h5.7V88.8z"/>
	<path class="st2" d="M74.9,87.5h-5.7v9.7h5.7V87.5z"/>
	<path class="st7" d="M62.3,83.8h-5.7v19.6h5.7V83.8z"/>
	<path class="st2" d="M62.3,76.1h-5.7v15.7h5.7V76.1z"/>
	<path class="st8" d="M39.2,33.1c-0.4,0-0.8-0.3-0.8-0.8c0-0.4,0.3-0.8,0.8-0.8c0.4,0,0.8,0.3,0.8,0.8C40,32.7,39.7,33.1,39.2,33.1z
		 M39.2,31.7c-0.3,0-0.6,0.3-0.6,0.6c0,0.3,0.3,0.6,0.6,0.6s0.6-0.3,0.6-0.6C39.9,32,39.6,31.7,39.2,31.7z"/>
	<path class="st8" d="M41.6,33.1c-0.4,0-0.8-0.3-0.8-0.8c0-0.4,0.3-0.8,0.8-0.8c0.4,0,0.8,0.3,0.8,0.8C42.3,32.7,42,33.1,41.6,33.1z
		 M41.6,31.7c-0.3,0-0.6,0.3-0.6,0.6c0,0.3,0.3,0.6,0.6,0.6s0.6-0.3,0.6-0.6C42.2,32,41.9,31.7,41.6,31.7z"/>
	<path class="st8" d="M43.9,33.1c-0.4,0-0.8-0.3-0.8-0.8c0-0.4,0.3-0.8,0.8-0.8c0.4,0,0.8,0.3,0.8,0.8
		C44.7,32.7,44.3,33.1,43.9,33.1z M43.9,31.7c-0.3,0-0.6,0.3-0.6,0.6c0,0.3,0.3,0.6,0.6,0.6s0.6-0.3,0.6-0.6
		C44.5,32,44.2,31.7,43.9,31.7z"/>
	<path class="st9" d="M78.6,77.3H53v18.5h25.6V77.3z"/>
	<path class="st7" d="M79.6,76.2H53.8v18.6h25.8V76.2z"/>
	<path class="st5" d="M79.6,76.2H53.9v1.5h25.7C79.6,77.7,79.6,76.2,79.6,76.2z"/>
	<path class="st10" d="M79.6,80.9L79.6,80.9l-3.2-0.1v-3.1h-0.1v3.1h-3.8v-3.1h-0.1v3.1h-3.8v-3.1h-0.1v3.1h-3.8v-3.1h-0.1v3.1H61
		v-3.1l0,0v3.1h-3.8v-3.1h-0.1v3.1H54v0.1h3.2v3.5H54v0.1h3.2V88H54v0.1h3.2v3.5H54v0.1h3.2V95h0.1v-3.3h3.8V95h0.1v-3.3H65V95h0.1
		v-3.3h3.8V95H69v-3.3h3.8V95h0.1v-3.3h3.8V95h0.1v-3.3H80v-0.1h-3.2v-3.5H80V88h-3.2v-3.5H80v-0.1h-3.2v-3.5H79.6z M72.5,80.9v3.5
		h-3.8v-3.5H72.5z M64.9,84.4h3.8v3.5h-3.8C64.9,87.9,64.9,84.4,64.9,84.4z M64.8,87.9H61v-3.5h3.8V87.9z M68.7,84.4h3.8v3.5h-3.8
		V84.4z M68.7,80.9v3.5h-3.8v-3.5H68.7z M64.8,80.9v3.5H61v-3.5H64.8z M57.2,80.9H61v3.5h-3.8V80.9z M57.2,84.4H61v3.5h-3.8V84.4z
		 M57.2,91.5V88H61v3.5H57.2z M61,91.5V88h3.8v3.5H61z M64.9,91.5V88h3.8v3.5H64.9z M68.7,91.5V88h3.8v3.5H68.7z M76.4,91.5h-3.8V88
		h3.8V91.5z M76.4,87.9h-3.8v-3.5h3.8V87.9z M76.4,84.4h-3.8v-3.5h3.8V84.4z"/>
	<path class="st5" d="M76.9,80.1c-0.4,0-0.8,0.3-0.8,0.8c0,0.2,0.1,0.4,0.2,0.6c-0.9,0.8-1.8,1.6-2.7,2.4c-0.1,0.1-0.1,0.1-0.2,0.2
		c-0.1-0.1-0.3-0.2-0.5-0.2c-0.4,0-0.8,0.3-0.8,0.8c0,0.3,0.1,0.5,0.4,0.7c-0.2,0.5-0.4,1-0.6,1.4c-0.1,0.2-0.2,0.4-0.3,0.6
		c-0.1,0-0.1,0-0.2,0c-0.3,0-0.5,0.2-0.7,0.4c-0.9-0.6-1.8-1.1-2.6-1.7c-0.7-0.4-1.3-0.8-2-1.2c0-0.1,0.1-0.2,0.1-0.3
		c0-0.4-0.4-0.8-0.8-0.8c-0.4,0-0.8,0.4-0.8,0.8c0,0.1,0,0.1,0,0.2c-1.2,0.5-2.5,1-3.7,1.5c-0.1,0.1-0.2,0.1-0.4,0.1
		c-0.1-0.3-0.4-0.5-0.7-0.5c-0.4,0-0.8,0.3-0.8,0.8c0,0.2,0.1,0.4,0.2,0.6c-0.2,0.2-0.4,0.4-0.5,0.6c-0.9,1-1.8,2-2.6,3
		c-0.1-0.1-0.3-0.1-0.4-0.1c-0.4,0-0.8,0.4-0.8,0.8s0.4,0.8,0.8,0.8s0.8-0.3,0.8-0.8c0-0.2-0.1-0.3-0.1-0.4c0.7-0.8,1.5-1.7,2.2-2.6
		c0.3-0.4,0.6-0.7,1-1.1c0.1,0,0.2,0.1,0.3,0.1c0.4,0,0.8-0.4,0.8-0.8l0,0c0,0,0,0,0.1,0c1.4-0.6,2.7-1.1,4.1-1.7
		c0.1,0.2,0.4,0.4,0.7,0.4c0.2,0,0.4-0.1,0.6-0.2c0.6,0.4,1.2,0.7,1.8,1.1c1,0.6,1.9,1.2,2.9,1.8v0.1c0,0.4,0.4,0.8,0.8,0.8
		s0.8-0.4,0.8-0.8c0-0.3-0.1-0.5-0.3-0.7c0.3-0.7,0.6-1.4,0.9-2.1c0.1,0,0.1,0,0.2,0c0.4,0,0.8-0.4,0.8-0.8c0-0.2,0-0.3-0.1-0.4
		c0.2-0.1,0.3-0.3,0.5-0.4c0.7-0.6,1.4-1.2,2.1-1.8c0.1-0.1,0.3-0.3,0.4-0.4c0.1,0,0.2,0.1,0.3,0.1c0.4,0,0.8-0.3,0.8-0.8
		C77.7,80.4,77.3,80.1,76.9,80.1z"/>
	<g>
		<defs>
			<path id="SVGID_1_" d="M67,132c35.9,0,65-29.1,65-65S102.9,2,67,2S2,31.1,2,67S31.1,132,67,132z"/>
		</defs>
		<clipPath id="SVGID_00000034091889569781571320000017879525132816615344_">
			<use xlink:href="#SVGID_1_"  style="overflow:visible;"/>
		</clipPath>
		<g style="clip-path:url(#SVGID_00000034091889569781571320000017879525132816615344_);">
			<path class="st3" d="M109,65.7l-4.1,6.5L81.8,57.6l4.1-6.5L109,65.7z"/>
			<path class="st12" d="M117,75.2L117,75.2c-1.3,2.1-3.6,3-5.2,2.1L94,66.4l4.7-7.9l17.8,11.2C118,70.7,118.3,73.1,117,75.2z"/>
			<path class="st13" d="M83.4,58.7l1.1,0.8l10.1-2.6l-8.4-5.4L83.4,58.7z"/>
			<path class="st12" d="M78.7,23.5c-10.9-6.8-25.1-3.5-31.9,7.4s-3.5,25.2,7.4,31.9c10.9,6.8,25.1,3.5,31.9-7.4
				C92.9,44.6,89.6,30.3,78.7,23.5z M83.3,53.8c-5.8,9.3-18.1,12.2-27.5,6.4c-9.3-5.8-12.2-18.1-6.4-27.5
				c5.8-9.3,18.1-12.2,27.5-6.4S89.2,44.4,83.3,53.8z"/>
			<path class="st14" d="M80.5,57.3c7.8-7.8,7.8-20.4,0-28.2s-20.4-7.8-28.2,0s-7.8,20.4,0,28.2S72.7,65.1,80.5,57.3z"/>
			<g class="st15">
				<path class="st8" d="M52.1,42.4c-0.1-6.4,4-12.1,10.2-13.9c6.1-1.8,12.8,0.9,16,6.4c0.9,1.5,3.4,0.2,2.5-1.3
					c-3.7-6.3-11-9.6-18.2-8.1c-7.1,1.5-12.3,7.6-13.1,14.6c-0.1,0.7-0.1,1.4-0.1,2.1C49.3,44.1,52.1,44.2,52.1,42.4z"/>
			</g>
			<path class="st16" d="M81.7,41.1c1-0.1,1.7-1.1,1.6-2.1s-1.1-1.7-2.1-1.6s-1.7,1.1-1.6,2.1S80.7,41.2,81.7,41.1z"/>
			<path class="st7" d="M94.3,66.1l4.4-7.5c0.2-0.3,0.1-0.6-0.2-0.8l-0.1-0.1c-0.3-0.2-0.7-0.1-0.8,0.2l-4.4,7.5
				c-0.2,0.3-0.1,0.6,0.2,0.8l0,0C93.8,66.4,94.1,66.4,94.3,66.1z"/>
			<path class="st17" d="M85.9,43.3c0,4.8-1.8,9.4-4.9,13s-7.5,5.8-12.1,6.5c-4.8,0.7-9.7-0.5-13.7-3.2c-3.9-2.6-6.7-6.6-8-11.1
				c-1.3-4.7-0.8-9.8,1.4-14.1c2.1-4.2,5.7-7.5,10-9.3c4.5-1.9,9.6-2,14.2-0.4c4.4,1.5,8.2,4.7,10.5,8.7
				C85,36.4,85.9,39.9,85.9,43.3c0,0.7,1.1,0.7,1.1,0c0-4.8-1.7-9.4-4.7-13.2c-2.9-3.6-7.2-6.2-11.7-7.2c-4.7-1-9.7-0.3-14,1.9
				c-4.1,2.2-7.5,5.8-9.3,10c-2,4.4-2.3,9.5-1,14.2c1.3,4.5,4.1,8.4,7.9,11.2C58.1,63,63,64.3,67.7,64c4.7-0.3,9.2-2.3,12.7-5.6
				c4.2-3.9,6.6-9.5,6.6-15.2C86.9,42.6,85.9,42.6,85.9,43.3z"/>
			<path class="st18" d="M114.2,79.6c0.7-2,1.8-5.9,2.5-7.7c-1.4-4.6-4.2-12.3-4.5-12.4c-1.7-0.5-3.2-0.9-4.9-1.4
				c-0.1,0-0.6,2.5-0.7,2.5s-0.1-0.5-0.1-1.1l0,0l-0.3-3.3c0-0.3-0.2-0.5-0.5-0.6c-1-0.3-3.1-0.8-3.2-0.6c0,0.1-0.2,2.9-0.4,3.7
				l-0.4-0.2l-0.5-5.4c0,0-3.7-0.9-3.8-0.8c-0.1,0.2-0.9,4.7-0.9,4.7s-1.4,10.8-1.6,11.6c-0.2,1.1-1,2.1-0.9,3.3
				c0.1,1.2,0.7,2.4,1.2,3.6c1.3,2.8,2.6,5.5,3.9,8.3c0.3,1.9,0.6,6.2,1,8c4.9-1,9.7-1.7,15.1-3.4C115.5,88.4,113.9,80.4,114.2,79.6
				z"/>
			<path class="st3" d="M98.9,98.9l-1.1-9.8l19.4-7.2l3.4,12L99,100.3L98.9,98.9z"/>
			<path class="st12" d="M121.3,87.7c0,0-20,11.4-24.1,12.5l-1.1,26.9H130L121.3,87.7z"/>
			<path class="st12" d="M101.9,93.1c-0.2,0.6-0.8,0.9-1.4,0.8c-0.6-0.2-0.9-0.8-0.8-1.4s0.8-0.9,1.4-0.8
				C101.7,91.9,102.1,92.5,101.9,93.1z"/>
			<path class="st18" d="M93,72.3l-2.6-4.1l-3.7-3.5c0,0-0.7-2.1,1.6-2.2c2.3-0.1,3.9,1.9,5,3.5c0.5,0.7,2.7,2.7,4.4,3.9
				c2.2,1.6-0.1,8.6-0.1,8.6S93.2,72.7,93,72.3z"/>
		</g>
	</g>
</g>
</svg>
