<?xml version="1.0" encoding="utf-8"?>
<!-- Generator: Adobe Illustrator 27.3.1, SVG Export Plug-In . SVG Version: 6.00 Build 0)  -->
<svg version="1.1" id="Capa_1" xmlns="http://www.w3.org/2000/svg" xmlns:xlink="http://www.w3.org/1999/xlink" x="0px" y="0px"
	 viewBox="0 0 638.1 233.33" style="enable-background:new 0 0 638.1 233.33;" xml:space="preserve">
<style type="text/css">
	.st0{fill:#2F3787;}
	.st1{fill:#424DBF;}
	.st2{fill:#70A4F1;}
	.st3{fill:#88B2F4;}
	.st4{fill:#A6C5F6;}
	.st5{enable-background:new    ;}
</style>
<g>
	<g>
		<g>
			<g>
				<path class="st0" d="M186.23,118.86c0.1,41.87-33.76,75.9-75.64,76c-41.87,0.1-75.9-33.76-76-75.63s33.76-75.9,75.64-76
					C152.1,43.13,186.13,76.99,186.23,118.86z"/>
				<g>
					<path class="st1" d="M45.52,95.72c1.47,1.97,3.43,3.62,5.76,4.46c0,0,5.52,1.97,7.73,5.05c0,0,1.33,5.29,6.18,4.61
						c0,0,1.79-0.4-0.99-0.66c0,0-2.43-0.76-1.44-2.86c0,0,0.87-3.09-0.45-3.19c0,0-2.64,0.12-3.31-0.77c0,0-0.89-1.32,2.08-3.53
						c0,0-0.22-0.55-1.21,0c0,0-1.55-1.21-2.87,0.01c0,0-0.55,1.54-2.31,0.77c-4.16-1.81-3.68-9.77,1.74-8.82
						c0,0,5.84,0.43,8.15,0.2c0,0,1.21-0.11,2.1,2.75c0,0,0.01,3.31,1.77,2.75c0,0,0.32-4.85,1.97-6.4c0,0,0.66-0.88,2.86-0.67
						c0,0,1.1-0.11,1.43-2.1c0,0,3.52-3.76,6.82-3.87c0,0,0.77-0.99,5.4-0.01c0,0,1.32,0.33,4.08,0.1c0,0,1.76-0.55,5.07,0.1
						c0,0,1.65-0.22-0.01-3.64c0,0-1.84-1.21,0.73-1.87c0,0,1.36-1.99-1.95-3.74c0,0-4.31-1.97-2.78-8.15c0,0-0.12-2.75-2.43-0.55
						c0,0-1.32,1.88-3.2,0.12c-1.5-1.41-1.88-4.69-1.87-6.6c0.01-0.93,0.04-2.24,0.68-2.99c1.01-1.17,2.15-0.15,2.16,1.21
						c0,0,0.01,5.84,3.65,4.51c0,0,0.55,0.55-0.01-2.64c0,0,1.99,0.99,1.21-1.21c0,0-1.44-3.5,0.66-2.36
						c0.55,0.3,1.01,0.79,1.65,0.93c3.3,0.71,0.64-2.84-0.23-3.65c0,0-4.85-5.44-4.37-7.01c-20.95,5.84-38.22,20.45-47.65,39.61
						c0.29,1.07,0.94,2.11,1.25,3.2C44.29,91.25,43.93,93.6,45.52,95.72z"/>
					<path class="st1" d="M54.74,162.12c0,0-2.65-1.81-0.02-7.61c0,0,1.81-2.15,1.64-5.29c0,0,1.15-2.81,3.79-5.3
						c0,0,0.72-0.66,0.6-2.31c0,0-0.45-2.42,1.86-4.63c0,0,2.64-3.31,1.53-6.06c0,0-4.08-1.2-3.42-3.3c0,0-0.12-3.09-1.11-3.3
						c0,0-0.99-0.88-0.23-2.97c0.03-0.09-1.86-0.99-1.81-1.57c0.12-1.33,2.95,0.4,2.46-1.4c0,0-3.09-1.76-0.34-2.31
						c0,0,4.35-1.03,3.96-4.2c0,0-0.67-1.21,1.43-0.99c0,0,2.11-2.1,3.32,0.43c0,0,2.52-0.56,3.41,0.87c0,0,0.66,0.88,2.54,0.33
						c0,0,1.54-0.55,2.21,0.99c0.74,1.04,1.6,2,2.5,2.91c0.76,0.77,1.61,1.57,2.52,2.15c1.04,0.66,2.35,0.52,3.1,1.64
						c0.69,1.04,0.62,2.58,0.51,3.75c0,0,3.09-0.56,7.06,3.62c0,0,0.11,0.66,1.76,0.11c0,0,2.87,0.54,3.75,3.19
						c0,0,0.23,1.21-1.32,1.77c0,0-4.62,1.55-3.84,4.53c0,0,0.34,3.97-2.19,3.86c-1.7-0.07-3.48-0.66-5.15-0.31
						c-0.83,0.17-1.86,0.43-2.5,1.03c-0.84,0.8-2.26,3.89-2.74,4.25c-1.81,1.36-4.79,2.49-7.07,2.55c0,0-0.98-2.75-0.82-2.62
						c0,0-0.99,0,0.22,1.88c0,0,0.34,2.42-0.98,2.43c0,0-3.19-0.43-3.97,0.34c-0.27,0.27-0.24,0.69-0.7,0.88
						c-0.6,0.24-1.22-0.35-1.83-0.09c-1,0.44-2.23,2.79-2.78,3.2c-0.3,0.22-1.36,1.64-0.74,1.98c0,0,3.42,1.86-0.65,1.87
						c0,0-1.76,0.01-1.1,1.44c0,0,0.22,1.1-1.65,1.77c0,0-0.66,0.55,1.55,3.08c0,0,2.1,2.42,0.01,2.2
						C59.49,166.84,58.5,168.61,54.74,162.12z"/>
					<path class="st1" d="M142.64,59.08c-0.23,1.46-0.04,3.98,1.62,4.46c1.86,0.54,1.76-1.47,3.08-1.67
						c2.92-0.43-1.08,8.77,1.86,7.28c1.07-0.54,1.91-0.97,2.17-1.86c0.32-1.08,0.66-1.36,1.32-2.28c1.27-1.78,0.84-2.93,0.49-4.8
						c-0.28-1.48,0.37-2.23,0.95-3.12c-1.89-1.34-3.85-2.59-5.87-3.75C145.54,54.94,143.16,55.74,142.64,59.08z"/>
					<path class="st1" d="M163.02,64.45c-0.06,0-5.15,0-5.14,0.65c0,0-0.5,0.55,0.69,1.32c0,0,0.09,1.76-1.9,0.45
						c0,0-1.77-0.88-1.1,1.55c0,0,0.34,2.75-0.71,2.87c0,0-7.1,2.44-8.21,0.02c0,0-0.77-0.69-0.34-3.43c0,0,0.87-4.62-1.55-2.63
						c0,0-0.77,0.88-0.76,4.08c0,0-0.88,1.98-3.08,1.77c0,0-1.1,0.33-1.1,1.77c0,0-1.1,1.55-2.2,1.66c0,0-2.53,1-4.85,0.9
						c0,0-3.3,0.34,0.01,2.97c0,0,2.21,2.98,0.23,4.25c-2.08,0.29-4.69-0.35-6.17,1.48c-1.25,1.55-2.21,3.94-0.86,5.75
						c0,0,4.15,3.92,8.75-2.77c0,0,1.24-0.81,2.06-2.3c0,0,0.33-1.08,1.82,0c0,0,1.24,0.49,2.48-0.42c0,0,0.99-0.5,1.53,0.74
						c0,0,2.94,2.14,3.61,5.2c0,0,0.5,1.57-0.99,1.66c0,0-1.99-0.16-1.4,1.49c0,0,0.82,1.24,2.48-0.01c0,0,0.49-1.41,1.73-2.4
						c0,0,1.15-0.67,0-1.49c0,0-4.65-5.69-2.5-6.85c0,0,0.58-0.58,1.57,0.99c0,0,2.65,3.63,3.41,7.02c0,0,1.08,3.71,1.17,5.12
						c0.01,0.21,0.37,0.47,0.56,0.44c1.82-0.24-0.79-6.06,1.41-6.07c0,0,0.74,0.24,1.66,2.47c0,0,1.42,3.88,2.9,4.04
						c0,0,4.79-0.51,4.8,0.98c0,0,0.42,1.16-0.57,1.74c0,0-1.95,1.47-1.06,5.87c0,0,0,1.35,0.56,4.47c0,0,1.56,6.1,2.89,10.06
						c0,0,0.56,2.64,2.98,3.08c0,0,5.61,0.43,11.78-5.98c0,0,0.77-2.43-1.44-4.96c0,0-0.66-0.22-1.55,0c0,0-3.63,0.45-3.75-0.98
						c0,0-1.99-4.73,0.21-4.74c0,0,0.64-0.94,1.77,2.42c0,0,1.33,3.44,4.19,1.05c0,0,0.56,0.23,0.68,1.72c0,0,0.11,2.56,6.31,1.97
						C184.62,94.24,176.07,77.03,163.02,64.45z"/>
					<path class="st1" d="M146.49,99.57c-0.26-0.48-0.6-1.09-0.51-1.65c0.27-1.67,2.64-0.38,3.54-0.12c0.61,0.18,3.6,0.71,3.42,1.76
						c0,0-0.1,0.61,2.73,0.71c0,0,2.73,0.43,4.05-0.56c0,0,1.21-1.57,0.77,0.65c0,0,0.01,3.43-1.64,3.44c0,0-0.85-0.42-0.67-1.98
						c0,0-1.65,0.44,0.12,3.42c0,0,1.66,1.87,1.78,5.18c0,0,1.3,1.43,0.55,5.51c0,0,1.56,0.53,1.79,3.02c0,0,0.77,1.93,2.43,2.7
						c0,0,0.89,1.43,0.89,3.41c0,0,1.32,0.99,4.41-0.01c0,0,3.85-3.04,1.38,2.26c0,0-0.98,2.98-4.29,5.96c0,0-7.78,5.97-8.01,8.45
						c0,0-1.06,2.98,0.93,5.45c0,0,1.5,6.61-2.46,7.78c0,0-4.3-0.32-3.62,6.46c0,0,0.34,2.31-2.64,2.65c0,0-0.16,2.98-1.48,3.97
						c0,0-3.46,5.13-5.44,5.47c0,0-5.28,1.83-6.79-3.95c0,0-3.32-5.94-2.34-9.58c0,0,0.45-0.99-0.19-2.15c0,0-3.17-1.65-0.03-11.08
						c0,0,2.33-2.98-0.5-9.09c0,0-2.96-2.14-0.94-5.67c0,0,1.83-2.87-0.72-3.42c0,0-2.87,1.99-2.99-2.31c0,0-0.42-1.65-4.62,1.11
						c-0.67,0.1-1.37,0.13-2.04,0.09c-0.69-0.04-1.35-0.48-2.04-0.47c-0.65,0-0.82,0.28-1.38,0.45c-1.64,0.52-2.65-0.4-3.27-1.93
						c0,0-4.19-0.87-3.54-4.4c0,0,0.53-2.05-1.11-2.05c0,0-3.53-3.01-0.01-5.56c0.68-0.49-0.92-3.08,1.15-3.13
						c-0.72-0.93-1.34-2.09-0.72-3.26c0,0,2.73-8.05,6.37-7.29c0,0-0.45-4.51,2.52-5.51c0,0,1.32-0.53,1.57-1.6c0,0,0.6-2.15,2.41,0
						c0,0,4.27,1.25,5.69-0.59c0,0,1.65-0.84,3.47-0.38c0,0,3.55-1.86,3.96-0.54c0.29,0.9,0.48,1.93,0.11,2.84
						c-0.2,0.49-0.6,0.71-0.5,1.2c0.23,1.08,2.54,2.44,3.37,2.95C143.15,99.21,144.6,99.18,146.49,99.57z"/>
					<path class="st1" d="M163.49,154.3c0.82,0,1.2-0.15,1.83-0.55c0.55-0.34,0.57-0.72,0.98-1.32c0.57-0.83,0.87-2.08,2.11-2.13
						c1.17,2.14-0.27,4.12-0.78,6.09c-0.53,2.05-1.86,4.1-2.14,6.12c-0.2,1.43,0.02,1.88-1.35,2.45c-0.68,0.28-1.22,0.39-1.92,0.08
						c-0.54-0.24-0.39-0.57-0.53-1.15c-0.24-1.04-0.83-2.43-0.48-3.5c0.26-0.79,1.37-0.98,1.64-1.66c0.16-0.39-0.02-1.23-0.01-1.66
						C162.84,157.06,162.27,154.29,163.49,154.3z"/>
					<path class="st1" d="M117.43,181.14c-1.16-2.48-3.31-0.49-3.31-0.49c-4.31-4.29-6.78-1.8-6.78-1.8
						c-2.15,1.82-3.64-0.65-3.64-0.65c-1.5-4.46-2.97,1.16-2.97,1.16c-3.47-1.15-4.63,1.67-4.63,1.67
						c-2.31,2.82-8.93-1.25-8.93-1.25c-2.98-1.42-4.14-1.36-4.14-1.36c0.34,2.48-3.47,0.86-3.47,0.86c-1.5-2.45-3.84-2.49-3.84-2.49
						c-1.18,0.99-2.23,0.5-2.23,0.5c-0.66-1.76-3.57-6.83-3.57-6.83c-1.58-2.64-4.61-4.99-4.61-4.99
						c-5.29-1.69-0.92,13.84-0.92,13.85c12.81,9.79,28.82,15.6,46.19,15.56c6.84-0.02,13.46-0.94,19.76-2.66
						C127.71,184.64,117.43,181.14,117.43,181.14z"/>
				</g>
			</g>
		</g>
		<g>
			<path class="st2" d="M73.09,147.9c71.78,8.66,95.9-59.83,95.39-61.13c-0.62-1.58-11-7.85-19.14-11.38
				c7.68-0.68,36.83-8.36,47.67-11.07c3.95-0.99,9.94,33.66,15.59,50.16c0,0-21.01-14.12-21.24-13.56
				c-9.21,23.03-30.05,51.89-64.84,58.52C96.1,165.23,73.09,147.9,73.09,147.9z"/>
		</g>
		<g>
			<path class="st3" d="M73.1,147.92c47.1-13.77,43.85-62.96,43.19-63.63c-0.81-0.82-8.96-1.96-14.98-1.99
				c4.61-2.48,20.75-15.06,26.79-19.64c2.2-1.67,15.2,18.35,23.13,27.13c0,0-16.88-3.2-16.87-2.78c0.4,16.83-4.89,40.41-24.83,53.84
				C92.08,152.58,73.1,147.92,73.1,147.92z"/>
		</g>
		<g>
			<path class="st4" d="M73.06,147.9c25.72-23.15,8.62-53.41,7.99-53.63c-0.76-0.27-6.29,1.5-10.13,3.32
				c2.17-2.98,8.58-15.91,11.02-20.67c0.89-1.74,15.27,7.01,22.99,10.17c0,0-11.71,3.13-11.57,3.39c5.4,10.57,9.25,27.17,0.68,41.8
				C86.55,145.07,73.06,147.9,73.06,147.9z"/>
		</g>
	</g>
	<g>
		<g class="st5">
			<path class="st3" d="M237.36,120.8c0-3.47,0.65-6.9,1.96-10.26c1.31-3.37,3.22-6.39,5.73-9.06s5.56-4.84,9.14-6.5
				c3.58-1.66,7.67-2.49,12.27-2.49c5.51,0,10.28,1.14,14.31,3.41c4.04,2.27,7.04,5.28,9.02,9.02l-11.95,8.5
				c-0.54-1.39-1.24-2.54-2.12-3.45c-0.88-0.91-1.86-1.63-2.93-2.17c-1.07-0.53-2.18-0.91-3.33-1.12s-2.26-0.32-3.33-0.32
				c-2.25,0-4.18,0.44-5.81,1.32s-2.97,2.03-4.01,3.45c-1.04,1.42-1.82,3.02-2.33,4.81s-0.76,3.57-0.76,5.33
				c0,1.98,0.29,3.88,0.88,5.69c0.59,1.82,1.44,3.42,2.57,4.81c1.12,1.39,2.5,2.5,4.13,3.33s3.46,1.24,5.49,1.24
				c1.07,0,2.17-0.12,3.29-0.36s2.21-0.64,3.25-1.2s1.98-1.28,2.81-2.17c0.83-0.88,1.48-1.96,1.96-3.25l12.75,7.62
				c-0.86,2.08-2.15,3.96-3.89,5.61c-1.74,1.66-3.72,3.05-5.93,4.17c-2.22,1.12-4.6,1.98-7.14,2.57c-2.54,0.59-5.01,0.88-7.42,0.88
				c-4.22,0-8.09-0.84-11.59-2.53c-3.5-1.68-6.52-3.92-9.06-6.7s-4.5-5.93-5.89-9.46C238.05,128.01,237.36,124.43,237.36,120.8z"/>
			<path class="st3" d="M323.65,150.23c-4.33,0-8.26-0.83-11.79-2.49s-6.55-3.83-9.06-6.54c-2.51-2.7-4.46-5.79-5.85-9.26
				s-2.08-7.06-2.08-10.75c0-3.74,0.72-7.35,2.17-10.82c1.44-3.47,3.46-6.54,6.05-9.18c2.59-2.65,5.67-4.76,9.22-6.33
				c3.55-1.58,7.44-2.37,11.67-2.37c4.33,0,8.26,0.83,11.79,2.49c3.53,1.66,6.55,3.85,9.06,6.58s4.45,5.83,5.81,9.3
				c1.36,3.48,2.04,7.03,2.04,10.67c0,3.74-0.72,7.34-2.17,10.79s-3.45,6.5-6.01,9.14s-5.63,4.77-9.18,6.38
				C331.76,149.42,327.87,150.23,323.65,150.23z M310.73,121.36c0,1.92,0.27,3.78,0.8,5.57s1.34,3.38,2.41,4.77s2.42,2.51,4.05,3.37
				c1.63,0.86,3.57,1.28,5.81,1.28s4.2-0.44,5.85-1.32c1.66-0.88,3.01-2.03,4.05-3.45c1.04-1.42,1.82-3.03,2.33-4.85
				c0.51-1.82,0.76-3.66,0.76-5.53c0-1.92-0.27-3.78-0.8-5.57c-0.54-1.79-1.35-3.37-2.45-4.73s-2.46-2.46-4.09-3.29
				s-3.54-1.24-5.73-1.24c-2.25,0-4.18,0.43-5.81,1.28c-1.63,0.86-2.98,1.99-4.05,3.41c-1.07,1.42-1.86,3.02-2.37,4.81
				C310.99,117.66,310.73,119.49,310.73,121.36z"/>
			<path class="st3" d="M405.36,149.75v-29.99l-9.54,21.09h-8.34l-9.54-21.09v29.99H362.3V92.81h17.08l12.27,26.78L404,92.81h17
				v56.94H405.36z"/>
			<path class="st3" d="M474.33,136.11v13.63h-40.58V92.81h39.86v13.63h-24.22v8.02h20.69v12.67h-20.69v8.98L474.33,136.11
				L474.33,136.11z"/>
			<path class="st3" d="M484.59,149.75V92.81h26.14c2.78,0,5.35,0.58,7.7,1.72s4.37,2.65,6.05,4.49s3.01,3.96,3.97,6.33
				c0.96,2.38,1.44,4.77,1.44,7.18c0,3.32-0.72,6.4-2.17,9.26c-1.44,2.86-3.45,5.2-6.01,7.02l12.03,20.93H516.1l-10.02-17.48h-5.85
				v17.48h-15.64V149.75z M500.23,118.63h9.86c0.96,0,1.86-0.53,2.69-1.6c0.83-1.07,1.24-2.57,1.24-4.49c0-1.98-0.48-3.49-1.44-4.53
				c-0.96-1.04-1.92-1.56-2.89-1.56h-9.46L500.23,118.63L500.23,118.63z"/>
			<path class="st3" d="M566.06,136.35c1.82,0,3.37-0.4,4.65-1.2s2.33-1.86,3.13-3.17s1.39-2.82,1.76-4.53s0.56-3.5,0.56-5.37V92.81
				h15.64v29.27c0,3.96-0.51,7.66-1.52,11.11c-1.02,3.45-2.59,6.43-4.73,8.94c-2.14,2.51-4.83,4.49-8.06,5.93
				c-3.24,1.44-7.04,2.17-11.43,2.17c-4.54,0-8.43-0.76-11.67-2.29c-3.24-1.52-5.89-3.57-7.98-6.13c-2.08-2.57-3.61-5.54-4.57-8.94
				c-0.96-3.39-1.44-6.99-1.44-10.79V92.81h15.64v29.27c0,1.87,0.19,3.68,0.56,5.41c0.37,1.74,0.96,3.26,1.76,4.57
				c0.8,1.31,1.83,2.35,3.09,3.13C562.71,135.97,564.25,136.35,566.06,136.35z"/>
		</g>
	</g>
</g>
</svg>
